<svg width="15" height="15" viewBox="0 0 15 15" fill="none" xmlns="http://www.w3.org/2000/svg">
<path d="M8.3088 4.53155L9.38848 5.61133C9.8845 6.10736 10.278 6.69625 10.5464 7.34437C10.8149 7.99249 10.9531 8.68714 10.9531 9.38867C10.9531 10.0902 10.8149 10.7849 10.5464 11.433C10.278 12.0811 9.8845 12.67 9.38848 13.166L9.11837 13.4354C8.11666 14.4372 6.75805 15 5.34142 15C3.92478 15 2.56617 14.4372 1.56446 13.4354C0.562755 12.4336 1.05547e-08 11.0748 0 9.65804C-1.05547e-08 8.24127 0.562755 6.88252 1.56446 5.88071L2.64414 6.96049C2.28733 7.31423 2.00389 7.73496 1.8101 8.19854C1.61631 8.66212 1.51599 9.15942 1.51489 9.66188C1.51379 10.1643 1.61193 10.6621 1.80369 11.1265C1.99545 11.5909 2.27704 12.0129 2.6323 12.3682C2.98756 12.7235 3.40949 13.0051 3.87387 13.1969C4.33824 13.3887 4.83593 13.4868 5.33834 13.4857C5.84075 13.4846 6.33799 13.3843 6.80153 13.1905C7.26506 12.9967 7.68576 12.7132 8.03946 12.3564L8.30956 12.0862C9.02479 11.3707 9.42657 10.4004 9.42657 9.38867C9.42657 8.37694 9.02479 7.40663 8.30956 6.69112L7.22989 5.61133L8.30956 4.53231L8.3088 4.53155ZM13.4348 9.11853L12.3559 8.03951C12.7127 7.68577 12.9961 7.26504 13.1899 6.80146C13.3837 6.33787 13.484 5.84058 13.4851 5.33812C13.4862 4.83565 13.3881 4.33792 13.1963 3.8735C13.0046 3.40907 12.723 2.9871 12.3677 2.6318C12.0124 2.27651 11.5905 1.99489 11.1261 1.80311C10.6618 1.61134 10.1641 1.51318 9.66166 1.51428C9.15925 1.51538 8.66201 1.61572 8.19847 1.80952C7.73494 2.00333 7.31424 2.2868 6.96054 2.64364L6.69044 2.91378C5.97521 3.62929 5.57343 4.5996 5.57343 5.61133C5.57343 6.62306 5.97521 7.59337 6.69044 8.30888L7.77011 9.38867L6.69044 10.4677L5.61152 9.38867C5.1155 8.89264 4.72202 8.30375 4.45357 7.65563C4.18512 7.00751 4.04695 6.31286 4.04695 5.61133C4.04695 4.90981 4.18512 4.21515 4.45357 3.56703C4.72202 2.91891 5.1155 2.33003 5.61152 1.834L5.88163 1.56462C6.88334 0.562812 8.24195 0 9.65858 0C11.0752 0 12.4338 0.562812 13.4355 1.56462C14.4372 2.56644 15 3.92518 15 5.34196C15 6.75873 14.4372 8.11748 13.4355 9.11929L13.4348 9.11853Z" fill="white" fill-opacity="0.5"/>
</svg>
